<?xml version="1.0" encoding="UTF-8"?><svg id="Layer_1" xmlns="http://www.w3.org/2000/svg" viewBox="0 0 64 64"><rect x="1" y="2.84" width="62" height="4" rx=".68" ry=".68"/><rect x="9" y="4.34" width="1" height="52.66"/><rect x="50" y="4.34" width="1" height="52.66"/><path d="M5.75,7.84h47.83l3.42,4v1.31H2v-1.05l3.75-4.26Z"/><path d="M5.75,12.84h47.83l3.42,4v1.31H2v-1.05l3.75-4.26Z"/><path d="M5.75,17.84h47.83l3.42,4v1.31H2v-1.05l3.75-4.26Z"/><path d="M5.75,22.84h47.83l3.42,4v1.31H2v-1.05l3.75-4.26Z"/><path d="M5.75,27.84h47.83l3.42,4v1.31H2v-1.05l3.75-4.26Z"/><path d="M5.75,32.84h47.83l3.42,4v1.31H2v-1.05l3.75-4.26Z"/><path d="M5.75,37.84h47.83l3.42,4v1.31H2v-1.05l3.75-4.26Z"/><path d="M5.75,42.84h47.83l3.42,4v1.31H2v-1.05l3.75-4.26Z"/><path d="M5.75,47.84h47.83l3.42,4v1.31H2v-1.05l3.75-4.26Z"/><path d="M5.75,52.84h47.83l3.42,4v1.31H2v-1.05l3.75-4.26Z"/><rect x="59" y="4.84" width="1" height="33"/><circle cx="59.5" cy="38.34" r="1.5"/></svg>